<svg xmlns="http://www.w3.org/2000/svg" width="75.022" height="74.835" viewBox="0 0 75.022 74.835"><g transform="translate(-7.49 -7.582)"><path d="M71.012,13.084H63.653V11.067a3.484,3.484,0,1,0-6.968,0v2.017H33.318V11.067a3.484,3.484,0,1,0-6.968,0v2.017H18.99a11.513,11.513,0,0,0-11.5,11.5V70.917a11.514,11.514,0,0,0,11.5,11.5H71.012a11.514,11.514,0,0,0,11.5-11.5V24.584A11.514,11.514,0,0,0,71.012,13.084Zm5.5,57.834a5.507,5.507,0,0,1-5.5,5.5H18.989a5.508,5.508,0,0,1-5.5-5.5V24.584a5.507,5.507,0,0,1,5.5-5.5h7.36v2.9a3.484,3.484,0,1,0,6.968,0v-2.9H56.682v2.9a3.484,3.484,0,1,0,6.968,0v-2.9h7.359a5.507,5.507,0,0,1,5.5,5.5V70.918Z"/></g></svg>