<svg xmlns="http://www.w3.org/2000/svg" width="89.282" height="87.666" viewBox="0 0 89.282 87.666"><g transform="translate(-5.752 -6.167)"><path d="M91.979,23.48C89.085,16.553,80.878,11.914,74.2,9.3,64.93,5.674,51.858,5.688,42.087,6.885,31.532,8.178,23.53,12.419,15.676,19.537,7.51,26.939,6.253,38.8,5.762,49.219a52.668,52.668,0,0,0,1.031,8.9C7.438,61.555,7.92,63.6,10.919,69.63a51.081,51.081,0,0,0,7.636,10.538c2.236,2.3,5.492,5.308,8.324,7.65,8.766,7.251,21.769,6.664,32.5,4.81C69.011,90.965,82,83.153,87,74.374c2.152-3.783,6.44-13.02,7.673-21.542C95.014,50.46,96.015,33.141,91.979,23.48Zm-1.022,26.2c-.064,2.286-2.226,10.6-4.507,15.978a70.169,70.169,0,0,1-5.137,7.657c-8.381,9.8-22.63,15.725-35.31,15.44a27.91,27.91,0,0,1-17.414-6.38A45.364,45.364,0,0,1,18.4,71.386c-.5-.748-2.028-3.237-2.479-4.018a37.339,37.339,0,0,1-3.9-10.478c-.885-4.216-.881-12.564-.406-16.741,1.02-8.983,3.728-15.466,10.219-21.75,11.2-10.847,33.112-12.089,47.286-7.54,7.725,2.479,16.171,8.421,19.98,15.623,4.045,7.649,2.085,14.962,1.855,23.2C90.93,50.65,90.988,48.578,90.957,49.68Z"/><path d="M46.526,68.477a13.624,13.624,0,0,1,11.181,1.372c.278.164.558.32.843.463a1.373,1.373,0,0,1,.7.783c.1.482.174.968.246,1.455a1.864,1.864,0,0,1-2.312,2.106,1.725,1.725,0,0,1-.308-.133,16.112,16.112,0,0,0-7.607-2.393c-3.439-.1-5.372,2.061-7.317,4.31-.493.569-.505,1.716-1.756,1.141A1.837,1.837,0,0,1,39,75.037a9.766,9.766,0,0,1,4.644-5.38A19.49,19.49,0,0,1,46.526,68.477Z"/><path d="M29.778,38.16c-.337-3.49,1.517-5.522,3.658-7.218,1.455-1.153,3.82.5,4.181,2.338.589,3.006-.936,5.524-1.515,8.25-.279,1.315-2.748,1.9-3.84,1.018C30.745,41.331,29.4,39.994,29.778,38.16Z"/><path d="M70.406,38.966a7.862,7.862,0,0,1-2.126,6.086,4.8,4.8,0,0,1-3.061,1.292c-.993.086-2.962-2.4-3-3.372-.131-3.044,1.277-5.533,3.015-7.838.762-1.01,2.546-.55,3.629.341C70.063,36.464,70.9,37.42,70.406,38.966Z"/></g></svg>