<svg xmlns="http://www.w3.org/2000/svg" xmlns:xlink="http://www.w3.org/1999/xlink" width="61.333" height="53.844" viewBox="0 0 61.333 53.844">
  <defs>
    <linearGradient id="linear-gradient" x1="0.5" x2="0.5" y2="1" gradientUnits="objectBoundingBox">
      <stop offset="0" stop-color="#00b2e5"/>
      <stop offset="1" stop-color="#ff6aa5"/>
    </linearGradient>
  </defs>
  <g id="noun_password_16205" transform="translate(-14.229 -18.596)">
    <path id="Path_2672" data-name="Path 2672" d="M70.4,77.987H37.293a7.407,7.407,0,0,1-7.4-7.4V64.866a7.407,7.407,0,0,1,7.4-7.4H70.4a7.409,7.409,0,0,1,7.4,7.4v5.722A7.409,7.409,0,0,1,70.4,77.987ZM37.293,61.326a3.545,3.545,0,0,0-3.539,3.542v5.722a3.545,3.545,0,0,0,3.539,3.542H70.4a3.547,3.547,0,0,0,3.542-3.542V64.867A3.547,3.547,0,0,0,70.4,61.326Z" transform="translate(-2.236 -5.547)" fill="url(#linear-gradient)"/>
    <circle id="Ellipse_2" data-name="Ellipse 2" cx="2.695" cy="2.695" r="2.695" transform="translate(36.175 59.488)" fill="url(#linear-gradient)"/>
    <circle id="Ellipse_3" data-name="Ellipse 3" cx="2.695" cy="2.695" r="2.695" transform="translate(44.343 59.488)" fill="url(#linear-gradient)"/>
    <circle id="Ellipse_4" data-name="Ellipse 4" cx="2.697" cy="2.697" r="2.697" transform="translate(52.506 59.484)" fill="url(#linear-gradient)"/>
    <path id="Path_2673" data-name="Path 2673" d="M71.1,66.295a2.695,2.695,0,1,1-2.7,2.693A2.693,2.693,0,0,1,71.1,66.295Z" transform="translate(-7.731 -6.807)" fill="url(#linear-gradient)"/>
    <path id="Path_2674" data-name="Path 2674" d="M40.109,39.93A1.93,1.93,0,0,1,38.18,38V29.472a7.018,7.018,0,1,0-14.036,0V38a1.929,1.929,0,1,1-3.858,0V29.472a10.876,10.876,0,1,1,21.751,0V38A1.929,1.929,0,0,1,40.109,39.93Z" transform="translate(-0.864)" fill="url(#linear-gradient)"/>
    <path id="Path_2675" data-name="Path 2675" d="M23.934,67.663H19.789a5.569,5.569,0,0,1-5.56-5.566V44.589a5.569,5.569,0,0,1,5.56-5.566H41.937a5.569,5.569,0,0,1,5.56,5.566v9.793a1.929,1.929,0,0,1-3.858,0V44.589a1.707,1.707,0,0,0-1.7-1.708H19.789a1.707,1.707,0,0,0-1.7,1.708V62.1a1.707,1.707,0,0,0,1.7,1.708h4.144a1.929,1.929,0,1,1,0,3.858Z" transform="translate(0 -2.915)" fill="url(#linear-gradient)"/>
  </g>
</svg>
