<svg xmlns="http://www.w3.org/2000/svg" width="24" height="24" viewBox="0 0 24 24">
  <g id="Group_806" data-name="Group 806" transform="translate(-208 -79)">
    <rect id="Rectangle_362" data-name="Rectangle 362" width="24" height="24" transform="translate(208 79)" fill="#bbb" opacity="0"/>
    <g id="noun_appointment_1746220" transform="translate(205.667 76.097)">
      <path id="Path_2776" data-name="Path 2776" d="M34.736,29a4.736,4.736,0,1,0,4.736,4.736A4.736,4.736,0,0,0,34.736,29Zm0,8.611a3.875,3.875,0,1,1,3.875-3.875,3.875,3.875,0,0,1-3.875,3.875Z" transform="translate(-14.806 -13.667)" stroke="#000" stroke-width="0.2"/>
      <path id="Path_2777" data-name="Path 2777" d="M39.584,36.352,37.5,38.436l-.65-.65a.431.431,0,1,0-.611.607l.96.956a.431.431,0,0,0,.607,0l2.394-2.39a.431.431,0,1,0-.611-.607Z" transform="translate(-18.284 -17.781)" stroke="#000" stroke-width="0.2"/>
      <path id="Path_2778" data-name="Path 2778" d="M14.045,22.222H5.722a.861.861,0,0,1-.861-.861V11.889H17.347a.431.431,0,1,0,0-.861H4.861V8.444a.861.861,0,0,1,.861-.861H7.66v.431A1.292,1.292,0,0,0,8.951,9.306h.431a1.292,1.292,0,0,0,1.292-1.292V7.583h5.6v.431a1.292,1.292,0,0,0,1.292,1.292h.431a1.292,1.292,0,0,0,1.292-1.292V7.583h1.937a.861.861,0,0,1,.861.861v2.583H20.154a.431.431,0,1,0,0,.861h1.929v2.557a.431.431,0,1,0,.861,0v-6a1.722,1.722,0,0,0-1.722-1.722H19.285V6.292A1.292,1.292,0,0,0,17.993,5h-.431a1.292,1.292,0,0,0-1.292,1.292v.431h-5.6V6.292A1.292,1.292,0,0,0,9.382,5H8.951A1.292,1.292,0,0,0,7.66,6.292v.431H5.722A1.722,1.722,0,0,0,4,8.444V21.361a1.722,1.722,0,0,0,1.722,1.722h8.323a.431.431,0,1,0,0-.861Zm3.087-15.93a.431.431,0,0,1,.431-.431h.431a.431.431,0,0,1,.431.431V8.014a.431.431,0,0,1-.431.431h-.431a.431.431,0,0,1-.431-.431Zm-8.611,0a.431.431,0,0,1,.431-.431h.431a.431.431,0,0,1,.431.431V8.014a.431.431,0,0,1-.431.431H8.951a.431.431,0,0,1-.431-.431Z" transform="translate(0 0)" stroke="#000" stroke-width="0.2"/>
    </g>
  </g>
</svg>
