<svg xmlns="http://www.w3.org/2000/svg" width="24" height="24" viewBox="0 0 24 24">
  <g id="Group_805" data-name="Group 805" transform="translate(-4289 -1543)">
    <rect id="Rectangle_361" data-name="Rectangle 361" width="24" height="24" transform="translate(4289 1543)" fill="#bbb" opacity="0"/>
    <g id="Group_799" data-name="Group 799" transform="translate(-31 29)">
      <path id="Path_2772" data-name="Path 2772" d="M22.234,10,12.51,17.133V30.75h7.13v-7a.778.778,0,0,1,.778-.778H24.05a.778.778,0,0,1,.778.778v7h7.13V17.133Zm8.427,19.453H26.125V23.747a2.075,2.075,0,0,0-2.075-2.075H20.418a2.075,2.075,0,0,0-2.075,2.075v5.706H13.807V17.781l8.427-6.171,8.427,6.171Z" transform="translate(4309.766 1505.625)"/>
    </g>
  </g>
</svg>
