<svg xmlns="http://www.w3.org/2000/svg" width="10.656" height="15.136" viewBox="0 0 10.656 15.136"><defs><style>.a{fill:#717171;}</style></defs><g transform="translate(-19.606 -1.006)"><g transform="translate(19.606 1.006)"><path class="a" d="M51.377,110.1v.709a.3.3,0,0,1-.156.264,2.925,2.925,0,0,1-1.346.324,2.961,2.961,0,0,1-1.346-.324.3.3,0,0,1-.156-.264V110.1c-.817.192-1.273.517-1.273.937,0,.745,1.442,1.093,2.775,1.093s2.775-.336,2.775-1.093C52.65,110.617,52.206,110.292,51.377,110.1Z" transform="translate(-43.797 -96.994)"/><path class="a" d="M36.79,84.5v-.4H34.7v.4a.292.292,0,0,0,.288.288h1.49A.3.3,0,0,0,36.79,84.5Z" transform="translate(-32.887 -74.117)"/><path class="a" d="M64.426,87.752V84.1H62.6v3.652A2.3,2.3,0,0,0,64.426,87.752Z" transform="translate(-57.435 -74.117)"/><path class="a" d="M29.541,8.274h-.565L27.943,5.367a.285.285,0,0,0-.276-.192H22.261L21.72,1.907a1.064,1.064,0,1,0-2.1.324L20.687,8.61V9.74a.667.667,0,0,0,.661.661h8.626a.292.292,0,0,0,.288-.288V9.019A.728.728,0,0,0,29.541,8.274Zm-6.764-.06h0l-.408-2.463h5.094l.889,2.523h-5.5A.067.067,0,0,1,22.777,8.214Z" transform="translate(-19.606 -1.006)"/></g></g></svg>