<svg xmlns="http://www.w3.org/2000/svg" width="24" height="24" viewBox="0 0 24 24">
  <g id="Group_803" data-name="Group 803" transform="translate(-4289 -1487)">
    <rect id="Rectangle_343" data-name="Rectangle 343" width="24" height="24" transform="translate(4289 1487)" fill="#eee" opacity="0"/>
    <g id="noun_profile_1594250" transform="translate(4291.829 1488)">
      <g id="Group_794" data-name="Group 794" transform="translate(0 0)">
        <g id="Group_793" data-name="Group 793">
          <path id="Path_2770" data-name="Path 2770" d="M51.1,50.263a1.065,1.065,0,0,1-1.061,1.065H34.061A1.066,1.066,0,0,1,33,50.263a9.051,9.051,0,1,1,18.1,0Zm-9.051-7.986a7.986,7.986,0,0,0-7.986,7.986s15.976,0,15.976,0A7.992,7.992,0,0,0,42.051,42.277Zm0-2.13a5.324,5.324,0,1,1,5.324-5.324A5.324,5.324,0,0,1,42.051,40.148Zm0-1.065a4.259,4.259,0,1,0-4.259-4.259A4.259,4.259,0,0,0,42.051,39.083Z" transform="translate(-33 -29.5)" stroke="#000" stroke-width="0.2"/>
        </g>
      </g>
    </g>
  </g>
</svg>
