<svg xmlns="http://www.w3.org/2000/svg" width="24" height="24" viewBox="0 0 24 24">
  <g id="Group_727" data-name="Group 727" transform="translate(-7404 -881)">
    <rect id="Rectangle_339" data-name="Rectangle 339" width="24" height="24" transform="translate(7404 881)" fill="#fff" opacity="0"/>
    <path id="phone" d="M21.959,16.889v2.994a2,2,0,0,1-2.175,2,19.749,19.749,0,0,1-8.612-3.064,19.459,19.459,0,0,1-5.987-5.987A19.749,19.749,0,0,1,2.12,4.175,2,2,0,0,1,4.106,2H7.1a2,2,0,0,1,2,1.716,12.813,12.813,0,0,0,.7,2.8,2,2,0,0,1-.449,2.106L8.078,9.893a15.967,15.967,0,0,0,5.987,5.987l1.267-1.267a2,2,0,0,1,2.106-.449,12.813,12.813,0,0,0,2.8.7,2,2,0,0,1,1.716,2.026Z" transform="translate(7404.22 881.333)" fill="none" stroke="#000" stroke-linecap="round" stroke-linejoin="round" stroke-width="1.2"/>
  </g>
</svg>
