<svg xmlns="http://www.w3.org/2000/svg" xmlns:xlink="http://www.w3.org/1999/xlink" width="184.813" height="29.887" viewBox="0 0 184.813 29.887">
  <defs>
    <linearGradient id="linear-gradient" y1="0.556" x2="0.963" y2="0.578" gradientUnits="objectBoundingBox">
      <stop offset="0" stop-color="#ff6aa5"/>
      <stop offset="1" stop-color="#00b2e5"/>
    </linearGradient>
  </defs>
  <path id="Path_2847" data-name="Path 2847" d="M8.843,1.728V-8.215H9.15L16.713,2.822c1.5,2.15,2.5,2.822,4.108,2.822,2.246,0,3.436-1.42,3.436-4.089V-17.026c0-2.457-1.324-3.916-3.532-3.916-2.169,0-3.455,1.44-3.455,3.916v9.732h-.288L9.476-18.178C8-20.289,7.1-20.942,5.522-20.942c-2.4,0-3.647,1.478-3.647,4.338V1.728c0,2.438,1.305,3.916,3.513,3.916C7.576,5.644,8.843,4.2,8.843,1.728ZM27.654-3.915c0,6.219,4.127,9.924,10.865,9.924a12.442,12.442,0,0,0,6.123-1.324,3.642,3.642,0,0,0,2.246-3.148,2.233,2.233,0,0,0-2.419-2.4,4.8,4.8,0,0,0-2.5.9,5.845,5.845,0,0,1-2.918.614C36.619.653,35.2-.729,35.14-2.706V-3.34h8.811c2.534,0,3.532-.941,3.532-3.359,0-5.125-4.031-9.041-9.713-9.041-6.123,0-10.116,3.916-10.116,9.962ZM35.14-7.236v-.038c0-1.881,1-3.148,2.783-3.148,1.632,0,2.707,1.267,2.707,3.148v.038ZM56.774-1.151c0-1.19,1-1.958,2.515-1.958h2.323v1.881A2.314,2.314,0,0,1,59.1.845,2.11,2.11,0,0,1,56.774-1.151Zm4.818,4.165h.365v.115a3.171,3.171,0,0,0,3.436,2.515c2.265,0,3.551-1.344,3.551-3.839V-8c0-4.741-3.4-7.467-9.367-7.467a14.361,14.361,0,0,0-5.931,1.037c-2.035.9-2.918,2.207-2.918,3.494a2.328,2.328,0,0,0,2.5,2.419,5.219,5.219,0,0,0,2.515-.614A7.058,7.058,0,0,1,59.1-10.25c1.555,0,2.515.768,2.515,2.131v1.286h-4.2c-4.856.019-7.812,2.38-7.812,6.277,0,3.7,2.745,6.219,6.776,6.219C58.77,5.663,60.747,4.646,61.592,3.014ZM79.846,1.632V-5.01c0-2.783,1.305-4.281,4.012-4.4a3.794,3.794,0,0,0,2.361-.768,2.858,2.858,0,0,0,.787-2.169,3.229,3.229,0,0,0-.806-2.3,3.076,3.076,0,0,0-2.246-.825c-2.016,0-3.455,1.267-3.993,3.513H79.6v-.077c-.192-2.188-1.382-3.3-3.494-3.3-2.361,0-3.59,1.4-3.59,4.012V1.632c0,2.553,1.152,4.012,3.57,4.012S79.846,4.185,79.846,1.632ZM88.715-6.66c0,8.081,4.185,12.688,11.844,12.688a13.637,13.637,0,0,0,7.812-2.15,5.809,5.809,0,0,0,2.918-4.568,2.9,2.9,0,0,0-3.071-2.975,4.37,4.37,0,0,0-3.11,1.459,5.633,5.633,0,0,1-4.031,1.881c-3.11,0-4.78-2.342-4.78-6.718v-1.5c0-4.012,1.728-6.334,4.78-6.334a5.379,5.379,0,0,1,3.916,1.9,4.638,4.638,0,0,0,3.186,1.44,2.888,2.888,0,0,0,3.071-2.975,5.669,5.669,0,0,0-2.016-3.839c-1.9-1.8-5.144-2.86-8.676-2.86-7.505,0-11.844,4.626-11.844,12.247Zm46.107,8.292V-7.985c0-4.76-2.5-7.486-6.757-7.486a5.894,5.894,0,0,0-5.816,3.781h-.365v-6.6c0-2.611-1.286-4.031-3.666-4.031s-3.686,1.42-3.686,4.031V1.632c0,2.591,1.286,4.012,3.686,4.012,2.361,0,3.666-1.42,3.666-4.012V-5.931c0-2.131,1.152-3.551,2.86-3.551,1.728,0,2.726,1.229,2.726,3.359V1.632c0,2.591,1.305,4.012,3.686,4.012C133.516,5.644,134.822,4.223,134.822,1.632Zm10.02-2.783c0-1.19,1-1.958,2.515-1.958h2.323v1.881A2.314,2.314,0,0,1,147.164.845,2.11,2.11,0,0,1,144.842-1.151Zm4.818,4.165h.365v.115a3.171,3.171,0,0,0,3.436,2.515c2.265,0,3.551-1.344,3.551-3.839V-8c0-4.741-3.4-7.467-9.367-7.467a14.361,14.361,0,0,0-5.931,1.037c-2.035.9-2.918,2.207-2.918,3.494a2.328,2.328,0,0,0,2.5,2.419,5.219,5.219,0,0,0,2.515-.614,7.058,7.058,0,0,1,3.359-1.113c1.555,0,2.515.768,2.515,2.131v1.286h-4.2c-4.856.019-7.812,2.38-7.812,6.277,0,3.7,2.745,6.219,6.776,6.219C146.838,5.663,148.815,4.646,149.66,3.014ZM160.62-20.5c0,2,1.574,3.4,3.82,3.4,2.227,0,3.8-1.4,3.8-3.4,0-1.958-1.574-3.359-3.8-3.359C162.194-23.859,160.62-22.458,160.62-20.5Zm7.486,22.132V-11.325c0-2.611-1.286-4.012-3.666-4.012s-3.666,1.4-3.666,4.012V1.632c0,2.611,1.286,4.012,3.666,4.012S168.106,4.243,168.106,1.632Zm11.421,0V-5.01c0-2.783,1.305-4.281,4.012-4.4a3.794,3.794,0,0,0,2.361-.768,2.858,2.858,0,0,0,.787-2.169,3.229,3.229,0,0,0-.806-2.3,3.076,3.076,0,0,0-2.246-.825c-2.016,0-3.455,1.267-3.993,3.513h-.365v-.077c-.192-2.188-1.382-3.3-3.494-3.3-2.361,0-3.59,1.4-3.59,4.012V1.632c0,2.553,1.152,4.012,3.57,4.012S179.528,4.185,179.528,1.632Z" transform="translate(-1.875 23.859)" fill="url(#linear-gradient)"/>
</svg>
