<svg xmlns="http://www.w3.org/2000/svg" xmlns:xlink="http://www.w3.org/1999/xlink" width="100.323" height="94.644" viewBox="0 0 100.323 94.644">
  <defs>
    <linearGradient id="linear-gradient" x1="0.5" x2="0.5" y2="1" gradientUnits="objectBoundingBox">
      <stop offset="0" stop-color="#ff6aa5"/>
      <stop offset="1" stop-color="#00b2e5"/>
    </linearGradient>
  </defs>
  <g id="noun_online_shopping_2042421" data-name="noun_online shopping_2042421" transform="translate(-48.875 -75.056)">
    <g id="Group_1334" data-name="Group 1334" transform="translate(74.413 97.812)">
      <g id="Group_1333" data-name="Group 1333">
        <path id="Path_3223" data-name="Path 3223" d="M327.36,319.961a2.645,2.645,0,0,1-.011.292c.043-.292.076-.574.119-.866a3.1,3.1,0,0,1-.173.693l.325-.78a3.306,3.306,0,0,1-.26.487c-.032-.022.65-.726.162-.227-.314.314-.3.043.227-.162-.162.065-.325.184-.487.26l.78-.325a3.094,3.094,0,0,1-.693.173c.292-.043.574-.076.866-.119-1.289.108-2.61.011-3.909.011H295.143c-1.494,0-2.989.022-4.483,0-.108,0-.227-.011-.336-.011.292.043.574.076.866.119a3.094,3.094,0,0,1-.693-.173l.78.325a3.311,3.311,0,0,1-.487-.26c.022-.032.726.65.227.162-.314-.314-.043-.3.162.227-.065-.162-.184-.325-.26-.487l.325.78a3.1,3.1,0,0,1-.173-.693c.043.292.076.574.119.866a16.558,16.558,0,0,1,.282-3.1c.249-2.307.487-4.6.736-6.909l1.657-15.659c.13-1.256.282-2.5.379-3.758-.043.292-.076.574-.119.866A3.1,3.1,0,0,1,294.3,291l-.325.78a3.308,3.308,0,0,1,.26-.487c.032.022-.65.726-.162.227.314-.314.3-.043-.227.162.162-.065.325-.184.487-.26l-.78.325a3.1,3.1,0,0,1,.693-.173c-.292.043-.574.076-.866.119,1.094-.087,2.22-.011,3.325-.011H321.09c1.343,0,2.718-.1,4.061.011-.292-.043-.574-.076-.866-.119a3.1,3.1,0,0,1,.693.173l-.78-.325a3.311,3.311,0,0,1,.487.26c-.022.032-.726-.65-.227-.162.314.314.043.3-.162-.227.065.162.184.325.26.487l-.325-.78a3.1,3.1,0,0,1,.173.693c-.043-.292-.076-.574-.119-.866.271,3.325.693,6.638,1.04,9.941q.828,7.781,1.646,15.561c.141,1.213.26,2.426.39,3.628a3.537,3.537,0,0,0,.953,2.3,3.311,3.311,0,0,0,2.3.953c1.6-.076,3.444-1.44,3.249-3.249q-.682-6.4-1.354-12.8-.828-7.764-1.646-15.54c-.011-.152-.033-.3-.043-.455a11.856,11.856,0,0,0-.141-1.191,5.688,5.688,0,0,0-1.343-2.729,6.043,6.043,0,0,0-4.786-2.047H294.331a7.707,7.707,0,0,0-3.26.628,5.75,5.75,0,0,0-3.184,4.148c-.065.455-.108.91-.152,1.365-.476,4.884-1.04,9.757-1.549,14.641l-.975,9.194c-.162,1.57-.4,3.14-.5,4.711-.206,3.238,2.7,5.88,5.783,6.01.314.011.628,0,.942,0h24.69c3.92,0,7.862.076,11.782,0a6.028,6.028,0,0,0,5.967-5.934,3.279,3.279,0,0,0-3.249-3.249A3.32,3.32,0,0,0,327.36,319.961Z" transform="translate(-284.705 -285.2)" fill="url(#linear-gradient)"/>
      </g>
    </g>
    <g id="Group_1336" data-name="Group 1336" transform="translate(88.371 86.83)">
      <g id="Group_1335" data-name="Group 1335" transform="translate(0 0)">
        <path id="Path_3224" data-name="Path 3224" d="M420.108,203.559v-8.393a12.865,12.865,0,0,1,.076-1.83c-.043.292-.076.574-.119.866a8.242,8.242,0,0,1,.5-1.819l-.325.78a8.4,8.4,0,0,1,.639-1.191,2.276,2.276,0,0,1,.206-.292c.011,0-.541.661-.249.325.152-.173.3-.357.477-.52.152-.152.314-.292.466-.433.206-.184.52-.271-.271.206.076-.043.152-.108.227-.162a7.719,7.719,0,0,1,1.245-.682l-.78.325a7.55,7.55,0,0,1,1.819-.5c-.292.043-.574.076-.866.119a7.507,7.507,0,0,1,2.09,0c-.292-.043-.574-.076-.866-.119a8.242,8.242,0,0,1,1.819.5l-.78-.325a8.406,8.406,0,0,1,1.191.639,2.279,2.279,0,0,1,.292.206c0,.011-.661-.541-.325-.249.173.152.357.3.52.476.152.152.292.314.433.466.184.206.271.52-.206-.271.043.076.108.152.162.227a7.717,7.717,0,0,1,.682,1.245l-.325-.78a7.55,7.55,0,0,1,.5,1.819c-.043-.292-.076-.574-.119-.866a28.155,28.155,0,0,1,.076,3.7v6.519a3.249,3.249,0,1,0,6.5,0v-6.66c0-.834.011-1.668,0-2.491a10.908,10.908,0,0,0-2.718-7.093,10.594,10.594,0,0,0-14.738-.975,10.178,10.178,0,0,0-3.541,6.151,22.425,22.425,0,0,0-.195,3.509v7.57a3.254,3.254,0,0,0,6.508,0Z" transform="translate(-413.6 -183.784)" fill="url(#linear-gradient)"/>
      </g>
    </g>
    <g id="Group_1343" data-name="Group 1343" transform="translate(48.875 75.056)">
      <g id="Group_1338" data-name="Group 1338" transform="translate(0 0)">
        <g id="Group_1337" data-name="Group 1337">
          <path id="Path_3225" data-name="Path 3225" d="M142.679,85.565v49.164c0,2.133.011,4.267,0,6.4a7.181,7.181,0,0,1-.076,1.083c.043-.292.076-.574.119-.866a8.018,8.018,0,0,1-.509,1.808l.325-.78a7.526,7.526,0,0,1-.606,1.126c-.065.1-.141.195-.206.292-.162.282.563-.661.206-.271-.141.152-.282.314-.433.466s-.314.282-.466.433c-.336.3.325-.26.325-.249,0,.033-.26.184-.292.206a8.348,8.348,0,0,1-1.18.65l.78-.325a7.493,7.493,0,0,1-1.808.509c.292-.043.574-.076.866-.119a22.252,22.252,0,0,1-2.946.076H59.469a7.618,7.618,0,0,1-1.115-.076c.292.043.574.076.866.119a8.018,8.018,0,0,1-1.808-.509l.78.325a7.525,7.525,0,0,1-1.126-.606c-.1-.065-.195-.141-.292-.206-.282-.162.661.563.271.206-.152-.141-.314-.282-.466-.433s-.282-.314-.433-.466c-.3-.336.26.325.249.325-.032,0-.184-.26-.206-.292a8.35,8.35,0,0,1-.65-1.18l.325.78a7.492,7.492,0,0,1-.509-1.808c.043.292.076.574.119.866a16.833,16.833,0,0,1-.076-2.339V92.116c0-2.166-.011-4.342,0-6.508a7.182,7.182,0,0,1,.076-1.083c-.043.292-.076.574-.119.866a8.018,8.018,0,0,1,.509-1.808l-.325.78a7.524,7.524,0,0,1,.606-1.126c.065-.1.141-.195.206-.292.162-.282-.563.661-.206.271.141-.152.282-.314.433-.466s.314-.282.466-.433c.336-.3-.325.26-.325.249,0-.032.26-.184.292-.206a8.351,8.351,0,0,1,1.18-.65l-.78.325a7.491,7.491,0,0,1,1.808-.509c-.292.043-.574.076-.866.119a22.253,22.253,0,0,1,2.946-.076h77.309a7.619,7.619,0,0,1,1.115.076c-.292-.043-.574-.076-.866-.119a8.018,8.018,0,0,1,1.808.509l-.78-.325a7.525,7.525,0,0,1,1.126.606c.1.065.195.141.292.206.282.162-.661-.563-.271-.206.152.141.314.282.466.433s.282.314.433.466c.3.336-.26-.325-.249-.325.032,0,.184.26.206.292a8.349,8.349,0,0,1,.65,1.18l-.325-.78a7.492,7.492,0,0,1,.509,1.808c-.043-.292-.076-.574-.119-.866a6.523,6.523,0,0,1,.076,1.04,3.249,3.249,0,1,0,6.5,0,10.725,10.725,0,0,0-4.418-8.544,10.334,10.334,0,0,0-6.129-1.96c-.791-.011-1.581,0-2.382,0H60.822a17.2,17.2,0,0,0-3.931.3,10.627,10.627,0,0,0-8.014,10.4v54.8c0,.3-.011.617.011.92a10.743,10.743,0,0,0,4.646,8.4,11.2,11.2,0,0,0,6.682,1.8h78.219a10.579,10.579,0,0,0,9.735-6.01,11.388,11.388,0,0,0,1.029-4.711v-55.4a3.287,3.287,0,0,0-3.249-3.249A3.33,3.33,0,0,0,142.679,85.565Z" transform="translate(-48.875 -75.056)" fill="url(#linear-gradient)"/>
        </g>
      </g>
      <g id="Group_1340" data-name="Group 1340" transform="translate(38.836 70.121)">
        <g id="Group_1339" data-name="Group 1339" transform="translate(0 0)">
          <path id="Path_3226" data-name="Path 3226" d="M423.765,725.828v18.009l3.249-3.249H410.749L414,743.836V725.828l-3.249,3.249h16.265a3.249,3.249,0,0,0,0-6.5H410.749a3.294,3.294,0,0,0-3.249,3.249v18.009a3.294,3.294,0,0,0,3.249,3.249h16.265a3.294,3.294,0,0,0,3.249-3.249V725.828a3.249,3.249,0,1,0-6.5,0Z" transform="translate(-407.5 -722.576)" fill="url(#linear-gradient)"/>
        </g>
      </g>
      <g id="Group_1342" data-name="Group 1342" transform="translate(26.705 88.118)">
        <g id="Group_1341" data-name="Group 1341">
          <path id="Path_3227" data-name="Path 3227" d="M298.728,895.279h35.519c1.646,0,3.292.032,4.938,0h.065a3.249,3.249,0,1,0,0-6.5H303.731c-1.646,0-3.292-.032-4.938,0h-.065a3.249,3.249,0,0,0,0,6.5Z" transform="translate(-295.476 -888.767)" fill="url(#linear-gradient)"/>
        </g>
      </g>
    </g>
  </g>
</svg>
