<svg xmlns="http://www.w3.org/2000/svg" xmlns:xlink="http://www.w3.org/1999/xlink" width="50" height="50" viewBox="0 0 50 50"><defs><style>.a{fill:url(#a);}</style><linearGradient id="a" x1="0.5" x2="0.5" y2="1" gradientUnits="objectBoundingBox"><stop offset="0" stop-color="#ff6aa5"/><stop offset="1" stop-color="#00b2e5"/></linearGradient></defs><g transform="translate(-5 -5)"><g transform="translate(5 5)"><path class="a" d="M48.182,5H11.818A6.818,6.818,0,0,0,5,11.818V48.182A6.818,6.818,0,0,0,11.818,55H48.182A6.818,6.818,0,0,0,55,48.182V11.818A6.818,6.818,0,0,0,48.182,5ZM11.818,9.545H48.182a2.273,2.273,0,0,1,2.273,2.273V31.341l-7.477-7.5a2.273,2.273,0,0,0-3.227,0L29.659,33.955,19.8,28.045a2.273,2.273,0,0,0-2.773.341l-7.477,7.5V11.818A2.273,2.273,0,0,1,11.818,9.545ZM50.455,48.182a2.273,2.273,0,0,1-2.273,2.273H11.818a2.273,2.273,0,0,1-2.273-2.273V42.3l9.432-9.432,9.864,5.909a2.273,2.273,0,0,0,2.773-.341l9.75-9.773,9.091,9.091Z" transform="translate(-5 -5)"/><circle class="a" cx="4.5" cy="4.5" r="4.5" transform="translate(9 9)"/></g></g></svg>