<svg xmlns="http://www.w3.org/2000/svg" xmlns:xlink="http://www.w3.org/1999/xlink" width="41.067" height="51.333" viewBox="0 0 41.067 51.333"><defs><style>.a{fill:url(#a);}</style><linearGradient id="a" x1="0.5" x2="0.5" y2="1" gradientUnits="objectBoundingBox"><stop offset="0" stop-color="#ff6aa5"/><stop offset="1" stop-color="#00b2e5"/></linearGradient></defs><g transform="translate(-14 -5)"><g transform="translate(14 5)"><path class="a" d="M48.222,11.844V5H14V49.489h6.844v6.844H55.067V11.844Zm-30.8,34.222V8.422H44.8v3.422H20.844V46.067Zm34.222,6.844H24.267V15.267H51.644Z" transform="translate(-14 -5)"/><rect class="a" width="3" height="3" transform="translate(15.533 15.667)"/><rect class="a" width="10" height="3" transform="translate(22.533 15.667)"/><rect class="a" width="3" height="3" transform="translate(15.533 23.667)"/><rect class="a" width="10" height="3" transform="translate(22.533 23.667)"/><rect class="a" width="3" height="3" transform="translate(15.533 31.667)"/><rect class="a" width="10" height="3" transform="translate(22.533 31.667)"/><rect class="a" width="3" height="3" transform="translate(15.533 39.667)"/><rect class="a" width="10" height="3" transform="translate(22.533 39.667)"/></g></g></svg>