<svg xmlns="http://www.w3.org/2000/svg" xmlns:xlink="http://www.w3.org/1999/xlink" width="49.999" height="49.999" viewBox="0 0 49.999 49.999"><defs><style>.a{fill:url(#a);}</style><linearGradient id="a" x1="0.5" x2="0.5" y2="1" gradientUnits="objectBoundingBox"><stop offset="0" stop-color="#ff6aa5"/><stop offset="1" stop-color="#00b2e5"/></linearGradient></defs><g transform="translate(-2 -2)"><g transform="translate(2 2)"><path class="a" d="M27,2A25,25,0,1,0,52,27,25,25,0,0,0,27,2Zm0,45A20,20,0,1,1,47,27,20,20,0,0,1,27,47Z" transform="translate(-2 -2)"/><path class="a" d="M18.089,6a2.5,2.5,0,0,0-2.5,2.5V19.975l-6.775,6.75a2.5,2.5,0,1,0,3.525,3.525l7.5-7.5a2.5,2.5,0,0,0,.75-1.75V8.5A2.5,2.5,0,0,0,18.089,6Z" transform="translate(6.91 4)"/></g></g></svg>