<svg xmlns="http://www.w3.org/2000/svg" xmlns:xlink="http://www.w3.org/1999/xlink" width="49.214" height="52.167" viewBox="0 0 49.214 52.167"><defs><style>.a{fill:url(#a);}</style><linearGradient id="a" x1="0.5" x2="0.5" y2="1" gradientUnits="objectBoundingBox"><stop offset="0" stop-color="#ff6aa5"/><stop offset="1" stop-color="#00b2e5"/></linearGradient></defs><g transform="translate(-12.5 -10.25)"><g transform="translate(12.5 10.25)"><path class="a" d="M61.714,18.78a8.53,8.53,0,0,0-8.53-8.53H21.03a8.53,8.53,0,0,0-8.53,8.53V53.886a8.53,8.53,0,0,0,8.53,8.53H53.183a8.53,8.53,0,0,0,8.53-8.53ZM57.777,53.886a4.593,4.593,0,0,1-4.593,4.593H21.03a4.593,4.593,0,0,1-4.593-4.593V18.78a4.593,4.593,0,0,1,4.593-4.593H53.183a4.593,4.593,0,0,1,4.593,4.593Z" transform="translate(-12.5 -10.25)"/><path class="a" d="M30.146,41.66a5.479,5.479,0,1,0,3.885,1.6,5.473,5.473,0,0,0-3.885-1.6Zm0,7.008a1.535,1.535,0,1,1,1.1-.44,1.535,1.535,0,0,1-1.1.44Z" transform="translate(-16.695 -21.049)"/><path class="a" d="M63.695,47H49.259a1.969,1.969,0,0,0,0,3.937H63.695a1.969,1.969,0,1,0,0-3.937Z" transform="translate(-24.461 -22.885)"/><path class="a" d="M30.146,21.66a5.479,5.479,0,1,0,3.885,1.6A5.473,5.473,0,0,0,30.146,21.66Zm0,7.008a1.535,1.535,0,1,1,1.1-.44,1.535,1.535,0,0,1-1.1.44Z" transform="translate(-16.695 -14.173)"/><path class="a" d="M63.695,27H49.259a1.969,1.969,0,0,0,0,3.937H63.695a1.969,1.969,0,1,0,0-3.937Z" transform="translate(-24.461 -16.009)"/><path class="a" d="M30.146,61.66a5.479,5.479,0,1,0,3.885,1.6,5.473,5.473,0,0,0-3.885-1.6Zm0,7.008a1.535,1.535,0,1,1,1.1-.44A1.535,1.535,0,0,1,30.146,68.668Z" transform="translate(-16.695 -27.926)"/><path class="a" d="M63.695,67H49.259a1.969,1.969,0,0,0,0,3.937H63.695a1.969,1.969,0,1,0,0-3.937Z" transform="translate(-24.461 -29.762)"/></g></g></svg>