<svg xmlns="http://www.w3.org/2000/svg" xmlns:xlink="http://www.w3.org/1999/xlink" width="52.991" height="55.4" viewBox="0 0 52.991 55.4"><defs><style>.a{fill:url(#a);}</style><linearGradient id="a" x1="0.5" x2="0.5" y2="1" gradientUnits="objectBoundingBox"><stop offset="0" stop-color="#ff6aa5"/><stop offset="1" stop-color="#00b2e5"/></linearGradient></defs><g transform="translate(-6 -4)"><g transform="translate(6 4)"><path class="a" d="M32.5,956.362A18.066,18.066,0,0,0,14.43,974.427v4.987a10.232,10.232,0,0,0,1.807,20.3H19.85a1.877,1.877,0,0,0,1.807-1.807V981.051a1.877,1.877,0,0,0-1.807-1.807H18.043v-4.817a14.452,14.452,0,0,1,28.9,0v4.817H45.141a2.016,2.016,0,0,0-1.807,1.807v16.861a1.877,1.877,0,0,0,1.807,1.807h1.505a6.229,6.229,0,0,1-2.239,3.011,13.491,13.491,0,0,1-7.471,2.371,4.809,4.809,0,1,0,.038,3.613,17.1,17.1,0,0,0,9.635-3.1,9.866,9.866,0,0,0,3.8-6.022,10.234,10.234,0,0,0,.151-20.173v-4.987A18.066,18.066,0,0,0,32.5,956.362Z" transform="translate(-6 -956.362)"/></g></g></svg>